<svg width="2001" height="317" viewBox="0 0 2001 317" fill="none" xmlns="http://www.w3.org/2000/svg">
<rect width="2001" height="317" rx="24" fill="black"/>
<path d="M966.517 117.869C966.517 111.099 961.029 105.61 954.259 105.61C953.566 105.61 952.891 105.679 952.232 105.792V115.365C952.829 114.872 953.595 114.576 954.429 114.576C956.337 114.576 957.883 116.123 957.883 118.03C957.883 118.645 957.721 119.22 957.44 119.72L966.504 118.141C966.506 118.05 966.517 117.961 966.517 117.869Z" fill="#F3F4F6"/>
<path d="M957.44 119.72C956.848 120.772 955.723 121.484 954.43 121.484C952.522 121.484 950.976 119.938 950.976 118.03C950.976 118.02 950.977 118.01 950.977 118H950.976V106.068C950.976 106.068 950.975 106.068 950.975 106.069V97H942V118.38H942.026C942.296 124.912 947.661 130.128 954.259 130.128C960.937 130.128 966.358 124.785 966.504 118.141L957.44 119.72Z" fill="#F3F4F6"/>
<path d="M972.59 126.064V102.064H980.981C982.653 102.064 984.032 102.354 985.118 102.932C986.204 103.502 987.012 104.271 987.543 105.24C988.075 106.201 988.34 107.268 988.34 108.439C988.34 109.471 988.157 110.322 987.79 110.994C987.43 111.666 986.954 112.197 986.36 112.588C985.774 112.979 985.137 113.268 984.45 113.455V113.689C985.184 113.736 985.922 113.994 986.665 114.463C987.407 114.932 988.028 115.604 988.528 116.479C989.028 117.354 989.278 118.424 989.278 119.689C989.278 120.893 989.004 121.975 988.458 122.936C987.911 123.896 987.047 124.658 985.868 125.221C984.688 125.783 983.153 126.064 981.262 126.064H972.59ZM975.497 123.486H981.262C983.161 123.486 984.508 123.119 985.305 122.385C986.11 121.643 986.512 120.744 986.512 119.689C986.512 118.877 986.305 118.127 985.891 117.439C985.477 116.744 984.887 116.189 984.122 115.775C983.356 115.354 982.45 115.143 981.403 115.143H975.497V123.486ZM975.497 112.611H980.887C981.762 112.611 982.551 112.439 983.254 112.096C983.965 111.752 984.528 111.268 984.942 110.643C985.364 110.018 985.575 109.283 985.575 108.439C985.575 107.385 985.208 106.49 984.473 105.756C983.739 105.014 982.575 104.643 980.981 104.643H975.497V112.611ZM1002.07 102.064V126.064H999.163V105.111H999.022L993.163 109.002V106.049L999.163 102.064H1002.07ZM1028.42 102.064V126.064H1025.61L1012.53 107.221H1012.3V126.064H1009.39V102.064H1012.21L1025.33 120.955H1025.56V102.064H1028.42ZM1041.65 126.064H1034.24V102.064H1041.97C1044.3 102.064 1046.29 102.545 1047.95 103.506C1049.61 104.459 1050.88 105.83 1051.76 107.619C1052.64 109.4 1053.08 111.533 1053.08 114.018C1053.08 116.518 1052.64 118.67 1051.75 120.475C1050.86 122.271 1049.56 123.654 1047.86 124.623C1046.15 125.584 1044.08 126.064 1041.65 126.064ZM1037.15 123.486H1041.46C1043.44 123.486 1045.09 123.104 1046.39 122.338C1047.7 121.572 1048.67 120.482 1049.31 119.068C1049.95 117.654 1050.27 115.971 1050.27 114.018C1050.27 112.08 1049.95 110.412 1049.32 109.014C1048.69 107.607 1047.74 106.529 1046.49 105.779C1045.23 105.021 1043.66 104.643 1041.79 104.643H1037.15V123.486Z" fill="white"/>
<path d="M694.609 164.516H666.484V182.562H691.094V185.609H666.484V208.109H662.734V161.469H694.609V164.516ZM715.938 176.234C707.812 176.547 703.672 181.703 703.516 191.703C703.828 200.922 707.969 205.766 715.938 206.234C723.75 206.078 727.812 201.156 728.125 191.469C727.656 181.938 723.594 176.859 715.938 176.234ZM715.703 208.812C705.547 208.188 700.234 202.484 699.766 191.703C700.234 179.672 705.781 173.5 716.406 173.188C726.094 173.656 731.172 179.672 731.641 191.234C731.484 202.797 726.172 208.656 715.703 208.812ZM755.547 178.344L757.188 175.062C755.312 173.656 753.203 173.031 750.859 173.188C746.484 173.5 743.516 175.922 741.953 180.453H741.719V174.125H738.438V208.109H741.719V189.594C742.031 181.469 744.922 177.172 750.391 176.703C752.578 176.703 754.297 177.25 755.547 178.344ZM806.406 186.312V208.109H802.891V186.781C803.047 179.281 800.312 175.688 794.688 176C789.062 176.312 785.781 179.984 784.844 187.016V208.109H781.562V186.781C781.719 179.281 778.984 175.688 773.359 176C767.266 176.156 764.062 179.906 763.75 187.25V208.109H760.234V173.891H763.75V180.688C765.469 175.844 768.906 173.344 774.062 173.188C780.156 173.188 783.672 176 784.609 181.625C786.172 176.156 789.766 173.344 795.391 173.188C802.891 173.031 806.562 177.406 806.406 186.312ZM842.031 186.547V183.266H814.141V186.547H842.031ZM870.156 185.375H855.625V205.297H871.094C879.531 205.297 883.75 201.781 883.75 194.75C883.281 188.656 878.75 185.531 870.156 185.375ZM869.453 164.516H855.625V182.328H869.453C877.422 182.328 881.484 179.125 881.641 172.719C881.484 167.406 877.422 164.672 869.453 164.516ZM871.797 208.109H852.344V161.469H870.625C879.844 161.938 884.766 165.688 885.391 172.719C885.234 178.969 881.875 182.641 875.312 183.734C883.125 185.141 887.188 189.047 887.5 195.453C887.344 203.734 882.109 207.953 871.797 208.109ZM906.953 208.109H910.469V160.766H907.891C906.016 165.922 901.094 170.453 893.125 174.359C893.125 175.453 893.125 176.547 893.125 177.641C900 174.516 904.609 171.156 906.953 167.562V208.109ZM952.422 186.312V208.109H949.141V186.781C949.297 179.438 946.094 175.844 939.531 176C932.969 176.469 929.141 180.141 928.047 187.016V208.109H924.766V174.125H928.047V181.156C930.703 176 934.844 173.344 940.469 173.188C948.594 173.031 952.578 177.406 952.422 186.312ZM985.234 193.109V187.719C984.453 181.156 980.703 177.25 973.984 176C966.641 176.312 962.812 181.469 962.5 191.469C962.5 201.156 966.328 206 973.984 206C981.172 205.844 984.922 201.547 985.234 193.109ZM988.516 208.109H985.234V201.547C982.891 206.391 978.672 208.812 972.578 208.812C963.984 208.344 959.531 202.562 959.219 191.469C959.531 179.75 964.219 173.656 973.281 173.188C978.75 173.344 982.734 175.844 985.234 180.688V161.234H988.516V208.109ZM997.422 208.109H1000.94V173.891H997.422V208.109ZM997.422 166.391H1000.94V161.234H997.422V166.391ZM1037.27 186.312V208.109H1033.98V186.781C1034.14 179.438 1030.94 175.844 1024.38 176C1017.81 176.469 1013.98 180.141 1012.89 187.016V208.109H1009.61V174.125H1012.89V181.156C1015.55 176 1019.69 173.344 1025.31 173.188C1033.44 173.031 1037.42 177.406 1037.27 186.312ZM1070.78 192.172V187.016C1070.16 180.297 1066.41 176.625 1059.53 176C1051.72 176.312 1047.66 181.156 1047.34 190.531C1047.5 199.906 1051.41 204.672 1059.06 204.828C1066.72 204.672 1070.62 200.453 1070.78 192.172ZM1074.06 173.891V203.656C1074.53 214.906 1069.22 220.297 1058.12 219.828C1052.5 219.672 1048.2 217.953 1045.23 214.672L1047.11 212.797C1049.77 215.453 1053.44 216.859 1058.12 217.016C1066.88 217.172 1071.09 213.266 1070.78 205.297V200.609C1068.91 204.828 1064.69 206.938 1058.12 206.938C1048.75 206.625 1043.98 201.156 1043.83 190.531C1044.3 179.594 1049.22 173.812 1058.59 173.188C1064.22 173.344 1068.28 175.531 1070.78 179.75V173.891H1074.06ZM1129.14 208.344V205.531H1103.12V161.469H1099.61V208.344H1129.14ZM1135.7 208.109H1139.22V173.891H1135.7V208.109ZM1135.7 166.391H1139.22V161.234H1135.7V166.391ZM1151.17 187.719V193.109C1151.48 201.547 1155.23 205.844 1162.42 206C1169.92 206 1173.67 201.156 1173.67 191.469C1173.36 181.469 1169.53 176.312 1162.19 176C1155.47 177.094 1151.8 181 1151.17 187.719ZM1151.17 208.109H1147.66V161.234H1151.17V180.688C1153.36 175.844 1157.27 173.344 1162.89 173.188C1172.11 173.656 1176.88 179.75 1177.19 191.469C1176.88 202.562 1172.34 208.344 1163.59 208.812C1157.5 208.812 1153.36 206.391 1151.17 201.547V208.109ZM1201.09 178.344L1202.73 175.062C1200.86 173.656 1198.75 173.031 1196.41 173.188C1192.03 173.5 1189.06 175.922 1187.5 180.453H1187.27V174.125H1183.98V208.109H1187.27V189.594C1187.58 181.469 1190.47 177.172 1195.94 176.703C1198.12 176.703 1199.84 177.25 1201.09 178.344ZM1230.39 194.516V187.719C1229.3 189.594 1225.47 190.922 1218.91 191.703C1210.94 192.328 1207.19 194.984 1207.66 199.672C1207.34 204.047 1210.39 206.156 1216.8 206C1225.23 205.688 1229.77 201.859 1230.39 194.516ZM1208.59 184.203L1205.31 183.031C1206.72 176.312 1211.72 173.031 1220.31 173.188C1229.69 172.875 1234.14 176.938 1233.67 185.375V200.609C1233.52 203.891 1234.14 206.312 1235.55 207.875H1232.03C1230.78 206.469 1230.16 204.359 1230.16 201.547C1227.66 206.234 1222.66 208.656 1215.16 208.812C1208.12 208.656 1204.53 205.609 1204.38 199.672C1204.38 193.422 1208.52 189.828 1216.8 188.891C1224.61 188.266 1229.06 187.016 1230.16 185.141C1230.62 178.734 1227.34 175.688 1220.31 176C1213.44 175.844 1209.53 178.578 1208.59 184.203ZM1259.45 178.344L1261.09 175.062C1259.22 173.656 1257.11 173.031 1254.77 173.188C1250.39 173.5 1247.42 175.922 1245.86 180.453H1245.62V174.125H1242.34V208.109H1245.62V189.594C1245.94 181.469 1248.83 177.172 1254.3 176.703C1256.48 176.703 1258.2 177.25 1259.45 178.344ZM1264.14 208.109H1267.66V173.891H1264.14V208.109ZM1264.14 166.391H1267.66V161.234H1264.14V166.391ZM1278.2 189.594H1302.11C1301.95 180.844 1298.05 176.391 1290.39 176.234C1282.73 176.703 1278.67 181.156 1278.2 189.594ZM1302.11 197.797L1305.62 198.734C1303.75 205.453 1298.75 208.812 1290.62 208.812C1280 208.344 1274.53 202.562 1274.22 191.469C1274.69 179.906 1280.08 173.812 1290.39 173.188C1300.39 173.5 1305.55 179.672 1305.86 191.703C1305.86 192.016 1305.86 192.25 1305.86 192.406H1277.97C1278.28 201.156 1282.42 205.688 1290.39 206C1296.95 206 1300.86 203.266 1302.11 197.797ZM1333.98 183.266L1337.27 182.094C1336.02 176.156 1331.64 173.188 1324.14 173.188C1316.48 173.5 1312.42 176.703 1311.95 182.797C1311.48 187.797 1315.86 191 1325.08 192.406C1332.42 193.5 1335.86 195.844 1335.39 199.438C1335.08 203.812 1331.64 206 1325.08 206C1318.67 206.156 1314.92 203.422 1313.83 197.797L1310.55 198.734C1312.42 205.609 1317.27 208.969 1325.08 208.812C1333.98 208.656 1338.59 205.453 1338.91 199.203C1339.22 194.203 1335 191 1326.25 189.594C1318.28 188.344 1314.61 186.078 1315.23 182.797C1315.39 178.422 1318.52 176.234 1324.61 176.234C1329.77 176.234 1332.89 178.578 1333.98 183.266Z" fill="white"/>
</svg>
